<svg width="1670" height="556" viewBox="0 0 1670 556" fill="none" xmlns="http://www.w3.org/2000/svg">
<path d="M1318.08 41.032C1307.37 48.0188 1298.34 53.7611 1298.1 53.6408C1297.98 53.5806 1290.44 46.3307 1281.48 37.7623C1272.45 29.0148 1264.73 22.1218 1264.2 22.2982C1263.66 22.4746 1263.65 23.9653 1264.06 25.5176C1266.75 36.7403 1272.92 69.4455 1272.5 70.2784C1272.2 70.8733 1263.71 76.4392 1253.48 82.4742C1243.32 88.6883 1235.18 94.1366 1235.3 94.495C1235.36 94.9722 1245.91 95.6769 1258.61 96.2722C1271.31 96.8675 1281.8 97.9892 1281.97 98.8248C1282.21 99.5415 1284.25 109.39 1286.52 120.551C1288.74 131.831 1291.14 141.263 1291.85 141.625C1292.56 141.986 1293.46 140.797 1294.13 138.594C1295.22 134.365 1309.7 99.5491 1310.41 99.3139C1310.71 99.3153 1319.71 99.5357 1330.5 100.063C1341.29 100.589 1350.95 100.694 1351.67 100.458C1352.57 100.164 1346.1 93.4561 1337.43 85.4854C1319.26 68.8246 1320.02 72.6444 1329.72 49.9109C1340.15 25.7496 1340.68 26.1695 1318.08 41.032Z" fill="black"/>
<path d="M5.06667 23.2666C0.8 23.6666 0 24.3333 0 26.8666C0 29.8 0.666667 30.0666 10 31C29.7333 32.8666 41.6 38.0666 51.8667 49.8C58.6667 57.5333 63.0667 66.0666 76.6667 98.3333C93.7333 138.467 122.667 206.067 183.733 348.333L238.133 475H247.067H256.133L268.133 447.667C274.667 432.6 281.2 417.933 282.533 415C290 399.133 348.533 265.133 380.667 190.333C389.6 169.4 398.267 149.667 399.867 146.733C406.267 133.933 419.333 125.667 435.333 124.333C447.6 123.133 447.733 123.133 447.067 119.133L446.4 115.667H386H325.733L325.6 119.533C325.467 123.133 325.733 123.267 333.733 124.2C350.667 125.933 358.933 133.133 359.733 147C360.4 157.4 359.867 159.133 319.867 265.667C285.333 358.067 270 397.4 268.4 397.933C267.867 398.2 263.333 389.133 258.4 377.933C197.333 239.133 156.267 146.467 139.467 109.933C122.267 72.7333 113.733 58.6 100 45C83.0667 28.0666 69.6 23.5333 34 23C20.8 22.7333 7.73333 22.8666 5.06667 23.2666Z" fill="black"/>
<path d="M694 114.333C692.534 115 638.667 115.533 574.4 115.533L457.333 115.667V119.533C457.333 123.133 457.733 123.4 464.133 124.2C478.8 126.2 488.667 132.6 493.867 143.667C496.667 149.667 496.667 150.2 497.067 285C497.467 422.6 497.2 432.2 492.533 441.267C486.8 452.467 473.467 461 462 461C457.733 461 457.333 461.267 457.333 465V469H574H690.667L692 465.667C692.667 463.8 695.734 453.667 698.534 443.267C701.467 432.867 705.467 419 707.334 412.333C711.334 397.8 711.334 398.333 707.734 398.333C705.334 398.333 703.734 400.067 700.667 406.067C694.934 417.133 683.467 428.067 671.734 433.667C655.867 441.267 647.467 442.6 609.867 443.267C562.534 444.2 551.467 442.067 545.867 430.6C543.467 426.067 543.334 420.733 542.934 357.267L542.534 288.733L588.934 289.267C633.2 289.667 635.6 289.8 641.6 292.6C649.867 296.333 654.134 303 657.067 317.133C659.2 326.867 659.867 328.333 662.4 328.467L665.334 328.6V278.2V227.667H662.134C659.334 227.667 658.934 228.467 658 235.133C655.867 252.467 651.467 260.867 642.134 265.133C637.2 267.4 632.534 267.667 589.6 267.667H542.534L542.934 208.6C543.334 152.067 543.467 149.533 546 145C547.6 142.467 550.8 139.267 553.334 137.667C557.734 135.133 560.534 135 600.534 134.6C645.467 134.2 657.067 135 668.134 139.8C680 145 689.867 159.8 693.467 177.667C694.934 185.4 695.467 186.333 698.267 186.333H701.334V149.667C701.334 115.533 701.2 113 699.067 113.133C697.734 113.133 695.467 113.667 694 114.333Z" fill="black"/>
<path d="M1526.67 114.6C1502.8 117.933 1481.07 129.933 1468.27 146.733C1448.27 172.733 1445.33 206.6 1460.13 237C1464.67 246.067 1468 250.6 1477.2 259.8C1492.53 275 1507.87 284.867 1545.33 303.267C1589.73 325.133 1606 335.933 1616.4 350.733C1624.27 361.933 1626.8 368.867 1627.6 382.333C1630.13 422.467 1601.07 449 1550.67 452.333C1516.67 454.6 1486.13 446.333 1468.4 429.8C1455.47 417.8 1448.53 405.4 1444.8 387.667C1443.47 381.133 1442.8 380.333 1439.6 379.933L1436 379.533L1436.27 417.133L1436.67 454.733L1446.93 458.467C1470.67 467.133 1504 471.533 1540.67 471C1576.93 470.467 1595.47 466.733 1617.33 455.533C1650.8 438.2 1669.33 407.267 1669.33 368.467C1669.33 342.333 1661.2 323.533 1641.47 303.533C1625.2 287.267 1614 279.933 1573.73 259.8C1556.13 251 1536.27 240.6 1529.87 236.867C1516.27 228.867 1500.4 213.8 1496.13 204.867C1488.67 189.133 1489.6 169.8 1498.53 156.067C1504.8 146.467 1510.27 141.8 1521.33 136.467C1529.2 132.733 1531.47 132.333 1545.47 131.933C1584 130.733 1609.07 148.067 1614.93 179.933C1616.53 189 1616.67 189 1620.93 189H1625.33V159.8V130.6L1619.07 127.933C1591.73 116.333 1553.47 110.733 1526.67 114.6Z" fill="black"/>
<path d="M721.333 120.333C721.333 124.333 721.867 125 725.067 125.8C738.8 128.867 747.467 135.533 753.2 147.667L756.667 155V297.667V440.333L753.867 445.667C752.267 448.6 749.867 452.067 748.4 453.267C744.933 456.467 735.067 460.6 728.4 461.667C725.2 462.2 722.667 463 722.667 463.667C722.667 464.333 722.267 465.667 721.867 466.867C721.067 468.733 726.533 469 776.533 469H832V465.8C832 462.867 831.2 462.333 824.4 461C813.467 458.733 806.8 455.4 801.067 449.533C790.667 438.6 791.333 448.333 790.933 310.6C790.8 243 791.067 187.667 791.6 187.8C792.133 187.8 795.067 190.733 798 194.2C800.934 197.667 824.934 225.4 851.334 255.667C877.734 285.933 909.734 322.867 922.534 337.533C996 422.6 1053.87 483.533 1082.13 505.933C1129.2 543.133 1167.73 557.4 1215.33 555.267C1245.2 553.8 1268.27 548.333 1291.33 537C1301.47 531.933 1314.53 522.467 1308.8 524.333C1300.27 527 1281.2 530.333 1267.07 531.667C1239.87 534.067 1210.67 530.467 1187.47 521.8C1174.67 517 1153.6 505.933 1142.4 498.067C1119.2 481.933 1076.67 440.2 1028.67 386.333C960.534 309.933 905.334 247.267 876 213C866.8 202.333 844.134 175.933 825.467 154.6L791.467 115.667H756.4H721.333V120.333Z" fill="black"/>
<path d="M974.667 119.533C974.667 123.133 975.067 123.4 981.6 124.067C994.8 125.667 1005.2 130.2 1012.8 137.533C1024.53 149 1024 143.533 1024 258.867V359L1031.07 367.133C1034.8 371.533 1044 382.067 1051.33 390.333L1064.67 405.533L1065.33 282.2C1066 168.6 1066.27 158.467 1068.4 151.933C1071.33 143.267 1079.33 134.2 1087.47 130.333C1094 127.133 1106.67 123.8 1112.4 123.667C1115.47 123.667 1116 123.133 1116 119.667V115.667H1045.33H974.667V119.533Z" fill="black"/>
<path d="M1126.67 119.533C1126.67 123.267 1126.93 123.267 1135.47 124.2C1152.53 125.933 1163.73 132.2 1169.33 143.133L1172.67 149.667L1173.47 257.667C1174.13 350.733 1174.53 367.4 1176.53 378.333C1187.6 440.067 1223.2 470.2 1285.07 470.333C1306.8 470.333 1319.73 467.933 1334 461.133C1362.93 447.267 1378.93 422.467 1386.27 379.667C1388.13 369 1388.53 349.933 1389.2 257C1390.13 133.667 1389.33 142.067 1400 132.467C1405.2 127.8 1418.4 123.667 1428.53 123.667C1432.93 123.667 1433.33 123.4 1433.33 119.667V115.667H1378.67H1324V119.533C1324 123.133 1324.27 123.267 1331.73 124.067C1348.67 125.933 1359.6 132.867 1362.93 143.933C1364.27 148.467 1364.67 173.667 1364.67 259.667C1364.67 358.867 1364.4 370.867 1362.27 381.8C1353.33 428.333 1332.4 447.267 1290.93 446.2C1268.27 445.667 1254.13 440.333 1242.13 427.667C1234 419.267 1228.13 408.067 1224.8 395.267C1220.53 378.733 1219.87 356.6 1220.27 252.333C1220.67 151.533 1220.67 149.533 1223.47 143.667C1228.8 131.933 1239.73 125.933 1258.4 124.067C1266.4 123.267 1266.67 123.133 1266.67 119.533V115.667H1196.67H1126.67V119.533Z" fill="black"/>
</svg>
